HIERARCHY
ROOT Hips
{
  OFFSET -24.0275 60.4208 48.1599
  CHANNELS 6 Xposition Yposition Zposition Zrotation Xrotation Yrotation
  JOINT RightUpLeg
  {
    OFFSET -8.9458 -8.66707 0.101652
    CHANNELS 3 Zrotation Xrotation Yrotation
    JOINT RightLeg
    {
      OFFSET 0 -44.4227 1.3727
      CHANNELS 3 Zrotation Xrotation Yrotation
      JOINT RightFoot
      {
        OFFSET 0.253549 -42.0924 -1.46059
        CHANNELS 3 Zrotation Xrotation Yrotation
        JOINT RightToes
        {
          OFFSET 0.04 -4.41509 8.4991
          CHANNELS 3 Zrotation Xrotation Yrotation
          End Site
          {
            OFFSET -0.08 -0.137448 9.77979
          }
        }
      }
    }
  }
  JOINT Spine
  {
    OFFSET 0 11.8905 0
    CHANNELS 3 Zrotation Xrotation Yrotation
    JOINT Spine1
    {
      OFFSET 0 25.6574 0.127663
      CHANNELS 3 Zrotation Xrotation Yrotation
      JOINT HEad
      {
        OFFSET 0 8.73416 0.011341
        CHANNELS 3 Zrotation Xrotation Yrotation
        End Site
        {
          OFFSET -0.29 12.7742 2.51395
        }
      }
      JOINT LeftShoulder1
      {
        OFFSET 8.99 -0.362252 -0.22
        CHANNELS 3 Zrotation Xrotation Yrotation
        JOINT LeftArm
        {
          OFFSET 10.2827 -0.00338 0.322123
          CHANNELS 3 Zrotation Xrotation Yrotation
          JOINT LeftForeArm
          {
            OFFSET 32.7669 0.099144 -1.42434
            CHANNELS 3 Zrotation Xrotation Yrotation
            JOINT LeftHand
            {
              OFFSET 27.5643 0.085362 1.02216
              CHANNELS 3 Zrotation Xrotation Yrotation
              End Site
              {
                OFFSET 16.7443 -0.6 1.50291
              }
            }
          }
        }
      }
      JOINT RightShoulder
      {
        OFFSET -8.99 -0.362252 -0.22
        CHANNELS 3 Zrotation Xrotation Yrotation
        JOINT RightArm
        {
          OFFSET -10.2827 -0.00338 0.322123
          CHANNELS 3 Zrotation Xrotation Yrotation
          JOINT RightForeArm
          {
            OFFSET -32.8971 0.099144 -1.42434
            CHANNELS 3 Zrotation Xrotation Yrotation
            JOINT RightHand
            {
              OFFSET -27.4921 0.085362 1.02216
              CHANNELS 3 Zrotation Xrotation Yrotation
              End Site
              {
                OFFSET -16.6312 -0.6 1.50291
              }
            }
          }
        }
      }
    }
  }
  JOINT LeftUpLeg
  {
    OFFSET 8.9458 -8.66707 0.101652
    CHANNELS 3 Zrotation Xrotation Yrotation
    JOINT LeftLeg
    {
      OFFSET 0 -44.4227 1.3727
      CHANNELS 3 Zrotation Xrotation Yrotation
      JOINT LeftFoot
      {
        OFFSET -0.253549 -42.0924 -1.46059
        CHANNELS 3 Zrotation Xrotation Yrotation
        JOINT LeftToes
        {
          OFFSET -0.04 -4.41509 8.4991
          CHANNELS 3 Zrotation Xrotation Yrotation
          End Site
          {
            OFFSET 0.08 -0.047448 9.77979
          }
        }
      }
    }
  }
}
MOTION
Frames:	10
Frame Time:	0.0166667
-23.883 60.4321 48.139 35.6283 34.6296 152.361 -11.7282 -39.4416 -15.6749 82.055 74.3647 -106.845 -4.80205 -2.43309 -1.13418 0.0462048 0.000533403 0.662642 -2.30571 3.2983 2.34865 -4.75758 6.50194 4.84015 -25.2781 57.0053 45.0115 -3.18055e-015 -3.18055e-015 3.18055e-015 -59.4538 18.1003 -49.4622 -17.5278 34.2894 -54.88 -19.6496 12.1769 26.3039 -1.95592e-008 -1.64207e-006 -1.94768e-006 81.5954 20.5721 13.0274 0.843374 6.35429 20.373 3.59576 8.24089 9.16334 113.911 -75.2619 131.302 -148.856 38.3182 125.917 55.728 -20.1393 -20.3901 -1.43484e-009 1.55999e-007 -4.85535e-009 
-23.8909 60.4377 48.1484 35.6517 34.6642 152.326 -11.6975 -39.3876 -15.6861 81.9157 74.4045 -106.71 -4.80793 -2.43421 -1.14889 0.0462048 0.000533403 0.662642 -2.30438 3.30531 2.33237 -4.75436 6.51668 4.80785 -25.306 56.9704 45.025 -3.18055e-015 -3.18055e-015 6.36111e-015 -59.5061 18.0279 -49.3686 -17.6681 34.1417 -54.8056 -19.6999 12.2156 26.2578 -1.95592e-008 -1.64207e-006 -1.94768e-006 81.2642 20.1495 13.1956 1.20632 6.54521 20.6925 4.12579 8.7877 8.68021 113.561 -75.1762 131.226 -148.842 38.3726 125.891 55.8194 -20.1318 -20.4125 -1.43482e-009 1.55999e-007 -4.85534e-009 
-23.8831 60.4432 48.1518 35.6701 34.7017 152.3 -11.6803 -39.3412 -15.6879 81.9025 74.4247 -106.708 -4.80656 -2.45249 -1.16573 0.0462048 0.000533403 0.662642 -2.30482 3.31178 2.32055 -4.75405 6.53011 4.78442 -25.3142 56.9572 45.0147 -3.18055e-015 -3.18055e-015 -6.36111e-015 -59.564 17.9578 -49.2878 -17.7096 34.1104 -54.781 -19.7702 12.1888 26.208 -1.95591e-008 -1.64207e-006 -1.94768e-006 80.9375 19.6091 13.386 1.55389 6.88236 21.011 4.66413 9.31125 8.24008 113.436 -75.2251 130.918 -148.846 38.4126 125.936 55.9054 -20.1705 -20.4276 -1.43483e-009 1.55999e-007 -4.85534e-009 
-23.8821 60.4457 48.1609 35.67 34.7254 152.296 -11.7017 -39.3223 -15.6999 81.9152 74.4294 -106.736 -4.80283 -2.44852 -1.12804 0.0462048 0.000533403 0.662642 -2.30865 3.31738 2.31261 -4.76153 6.54148 4.76899 -25.2785 56.9515 44.9597 -4.77083e-015 3.18055e-015 -0 -59.5901 17.9008 -49.2597 -17.7121 34.1316 -54.7627 -19.811 12.1405 26.1581 -1.95592e-008 -1.64207e-006 -1.94768e-006 80.5748 19.0598 13.6199 1.86245 7.27112 21.3446 4.99288 9.72611 8.10449 113.345 -75.2468 130.815 -148.835 38.4322 125.975 55.9703 -20.2383 -20.4282 -1.43484e-009 1.55999e-007 -4.85534e-009 
-23.8698 60.445 48.1615 35.656 34.7365 152.302 -11.7261 -39.3292 -15.7099 82.0041 74.4359 -106.833 -4.7931 -2.45553 -1.11495 0.0462048 0.000533403 0.662642 -2.31571 3.3214 2.30567 -4.77549 6.5495 4.75567 -25.2378 56.9447 44.8947 -6.36111e-015 0 -3.18055e-015 -59.576 17.8566 -49.2681 -17.7134 34.1501 -54.7378 -19.8385 12.087 26.115 -1.95592e-008 -1.64207e-006 -1.94768e-006 80.1903 18.6184 13.8514 2.06958 7.58666 21.7699 4.90685 10.0784 8.53788 113.393 -75.3364 130.503 -148.812 38.4413 126.008 56.0227 -20.2935 -20.403 -1.43484e-009 1.55999e-007 -4.85534e-009 
-23.8742 60.4401 48.169 35.6415 34.7375 152.308 -11.7458 -39.3489 -15.7175 82.0383 74.4467 -106.866 -4.78008 -2.44668 -1.10859 0.0462048 0.000533403 0.662642 -2.32264 3.32432 2.2969 -4.78904 6.55587 4.73864 -25.2065 56.9306 44.8454 -0 -6.36111e-015 -0 -59.531 17.8177 -49.2991 -17.726 34.1613 -54.7019 -19.834 12.0258 26.0845 -1.95592e-008 -1.64207e-006 -1.94768e-006 79.7902 18.3299 14.0537 2.18146 7.67953 22.3432 4.20031 10.4555 9.72008 113.338 -75.3016 130.447 -148.796 38.437 126.008 56.0674 -20.3366 -20.3601 -1.43484e-009 1.55999e-007 -4.85535e-009 
-23.8929 60.4325 48.1784 35.6181 34.72 152.314 -11.7608 -39.3918 -15.7113 82.0042 74.4509 -106.828 -4.78198 -2.42499 -1.11759 0.0462048 0.000533403 0.662642 -2.33029 3.32645 2.287 -4.80389 6.55979 4.71933 -25.1853 56.8973 44.8108 1.59028e-015 3.18055e-015 -0 -59.4712 17.7659 -49.3518 -17.7394 34.1783 -54.6664 -19.7734 11.9805 26.0294 -1.95592e-008 -1.64207e-006 -1.94768e-006 79.451 18.1275 14.2276 2.20669 7.51374 23.0875 2.73548 10.6298 11.5637 113.363 -75.2975 130.857 -148.782 38.4275 125.985 56.0788 -20.3761 -20.3426 -1.43484e-009 1.55999e-007 -4.85534e-009 
-23.8984 60.4235 48.1806 35.6036 34.7074 152.315 -11.7583 -39.4226 -15.6949 82.0027 74.4478 -106.836 -4.79411 -2.425 -1.13575 0.0462048 0.000533403 0.662642 -2.33737 3.32732 2.27607 -4.8175 6.56168 4.69785 -25.1854 56.8759 44.7986 -1.05934e-030 -9.54166e-015 -6.36111e-015 -59.3947 17.7281 -49.4021 -17.7358 34.2167 -54.6416 -19.6814 11.9583 25.9478 -1.95591e-008 -1.64207e-006 -1.94768e-006 79.1691 17.9467 14.3608 2.20987 7.14752 23.9982 0.529748 10.3718 13.6731 113.415 -75.2597 130.843 -148.766 38.4264 125.967 56.063 -20.4006 -20.3545 -1.43484e-009 1.55999e-007 -4.85534e-009 
-23.91 60.4164 48.1828 35.6119 34.7101 152.299 -11.7439 -39.4186 -15.6744 81.9445 74.4413 -106.793 -4.81746 -2.42445 -1.10052 0.0462048 0.000533403 0.662642 -2.34354 3.33007 2.26708 -4.82933 6.56558 4.68031 -25.1876 56.8742 44.7872 -4.77083e-015 3.18055e-015 9.54166e-015 -59.3132 17.7211 -49.4421 -17.7199 34.2453 -54.6177 -19.5611 11.9227 25.8735 -1.95592e-008 -1.64207e-006 -1.94768e-006 78.9122 17.6338 14.4513 2.26141 6.81353 25.0894 -2.36499 9.76662 15.6936 113.31 -75.2559 130.78 -148.74 38.4308 125.947 56.0191 -20.418 -20.3879 -1.43483e-009 1.55999e-007 -4.85535e-009 
-23.9206 60.4115 48.1832 35.6294 34.7151 152.278 -11.7235 -39.4068 -15.6636 81.9028 74.4408 -106.759 -4.83929 -2.42905 -1.11826 0.0462048 0.000533403 0.662642 -2.35029 3.33367 2.25924 -4.84276 6.57509 4.66521 -25.1758 56.8633 44.7572 -7.95139e-015 6.36111e-015 -3.18055e-015 -59.2536 17.7429 -49.4738 -17.6678 34.2531 -54.61 -19.4762 11.8828 25.8399 -1.95592e-008 -1.64207e-006 -1.94768e-006 78.6769 17.1704 14.5502 2.40966 6.44761 26.3733 -5.67535 9.09169 17.2507 113.32 -75.2579 130.714 -148.731 38.435 125.951 55.9787 -20.4378 -20.4056 -1.43484e-009 1.55999e-007 -4.85534e-009 
